<svg xmlns="http://www.w3.org/2000/svg" viewBox="0 0 512 512">
  <defs>
    <linearGradient id="g" x1="0" y1="0" x2="1" y2="1">
      <stop offset="0%" stop-color="#ffd700"/>
      <stop offset="55%" stop-color="#ff8c00"/>
      <stop offset="100%" stop-color="#ff4500"/>
    </linearGradient>
  </defs>
  <rect width="512" height="512" rx="96" fill="#0a0800"/>
  <path d="M256 82c22 49 32 91 12 129-18 35-9 63 13 91 26 34 31 63 28 106h-106c2-37 13-64 34-89 27-33 32-62 17-98-17-41-14-82 2-139z" fill="url(#g)"/>
  <ellipse cx="256" cy="402" rx="104" ry="42" fill="url(#g)"/>
  <rect x="226" y="402" width="60" height="28" rx="10" fill="url(#g)"/>
  <path d="M154 389c-28 0-47-7-61-23-16-17-16-43 1-58 12-11 28-14 42-8 10 5 15 16 12 28-3 10-12 17-23 17-6 0-9 5-6 11 5 10 17 14 35 14z" fill="url(#g)"/>
  <circle cx="360" cy="128" r="15" fill="#ffd700"/>
  <circle cx="388" cy="178" r="9" fill="#ff8c00"/>
</svg>
